<svg width="26" height="26" fill="none" xmlns="http://www.w3.org/2000/svg"><path d="M22.942 8.059a.862.862 0 01.62.79v9.75c-.019.4-.308.692-.712.82a16.32 16.32 0 01-9.91.014c-1.615-.515-3.303-.834-4.998-.813a14.72 14.72 0 00-4.435.749s-.28.083-.528-.005c-.315-.111-.525-.43-.542-.766v-13c.02-.4.31-.692.713-.822a16.338 16.338 0 019.91-.013 17.68 17.68 0 002.122.563c2.422.455 4.97.279 7.311-.499l.15-.035c.069-.005.086-.01.155-.005.712.042 1.15 1.27.17 1.595l-.08.026a16.34 16.34 0 01-9.949.025c-1.488-.475-3.035-.788-4.595-.812a14.66 14.66 0 00-4.272.572l-.01 11.318a16.27 16.27 0 018.999.252c2.86.913 5.966 1.074 8.867.24l.01-9.155s.212-.942 1.004-.79zm-3.401 7.308c.582.04.98.787.617 1.288-.22.302-.632.344-1.055.378a15.88 15.88 0 01-2.885-.04c-.53-.056-.925-.642-.716-1.133.154-.36.568-.516.983-.474.973.093 1.953.092 2.926-.015 0 0 .042-.006.13-.004zm-6.52-6.505c1.493.014 2.887 1.166 3.16 2.644.374 2.011-1.505 4.194-3.773 3.774-1.313-.244-2.415-1.383-2.61-2.71-.263-1.797 1.209-3.665 3.14-3.708h.083zm-.032 1.625c-1.056.01-1.933 1.259-1.45 2.29.345.738 1.307 1.125 2.07.813.825-.337 1.246-1.43.817-2.242a1.64 1.64 0 00-1.394-.86h-.043zM8.18 7.241c.536.003 1.073.032 1.606.09.178.02.722.267.773.724.05.466-.376.933-.864.9-1.007-.07-2.065-.113-3.109-.003 0 0-.417.003-.65-.225-.422-.408-.218-1.29.448-1.387.573-.083 1.192-.1 1.796-.099z" fill="#A8DA3B"/></svg>