<svg width="49" height="36" fill="none" xmlns="http://www.w3.org/2000/svg"><g clip-path="url(#a)" fill="#F99746"><path d="M18.74 0C13.847 1.546 9.468 4.959 5.668 10.24 1.867 15.52 0 20.222 0 24.343c0 4.122 1.03 7.084 3.156 8.952C5.28 35.098 7.92 36 11.142 36c3.22 0 6.053-1.288 8.372-3.928 2.318-2.64 3.477-5.539 3.477-8.695 0-3.155-1.03-5.602-3.091-7.341-2.06-1.739-3.8-2.64-5.28-2.64.128-.902.772-2.384 2.124-4.38 1.288-1.996 2.834-3.735 4.637-5.088-.129-1.803-1.03-3.09-2.64-3.928zm25.697 0c-3.285 1.03-6.376 2.962-9.274 5.796-2.898 2.834-5.217 6.054-6.891 9.596-1.674 3.542-2.512 6.955-2.512 10.175 0 3.22 1.03 5.796 3.091 7.664C30.849 35.098 33.489 36 36.773 36c3.22 0 6.053-1.288 8.372-3.928 2.318-2.64 3.478-5.539 3.478-8.695 0-3.155-1.03-5.602-3.092-7.341-2.06-1.739-3.8-2.64-5.28-2.64.064-.902.772-2.384 2.125-4.38 1.288-1.996 2.898-3.735 4.7-5.088C46.885 2.19 46.047.902 44.437 0z"/></g><defs><clipPath id="a"><path fill="#fff" transform="rotate(-180 24.311 18)" d="M0 0h48.623v36H0z"/></clipPath></defs></svg>