<svg width="70" height="70" fill="none" xmlns="http://www.w3.org/2000/svg"><path d="M65.266 65.31H29.14a4.683 4.683 0 110-9.367h36.126a4.684 4.684 0 010 9.367zM29.14 57.59a3.036 3.036 0 100 6.073h36.126a3.036 3.036 0 100-6.073H29.14z" fill="#273444"/><path d="M64.726 62.263a1.636 1.636 0 100-3.273 1.636 1.636 0 000 3.273zm-4.382 0a1.636 1.636 0 100-3.273 1.636 1.636 0 000 3.273zm-4.384 0a1.636 1.636 0 100-3.273 1.636 1.636 0 000 3.273zm-4.38 0a1.636 1.636 0 10-.001-3.273 1.636 1.636 0 000 3.273zm-4.383 0a1.636 1.636 0 100-3.273 1.636 1.636 0 000 3.273zm-4.383 0a1.636 1.636 0 100-3.273 1.636 1.636 0 000 3.273zm-4.382 0a1.636 1.636 0 100-3.273 1.636 1.636 0 000 3.273zm-4.384 0a1.636 1.636 0 100-3.273 1.636 1.636 0 000 3.273zm-4.381 0a1.636 1.636 0 100-3.273 1.636 1.636 0 000 3.273z" fill="#273444"/><path d="M67.668 42.64H49.641v-5.936a1.531 1.531 0 00-1.531-1.531H35.536a1.75 1.75 0 00-1.531.919L28.982 45.5v6.563a1.531 1.531 0 001.531 1.53h17.612a1.531 1.531 0 001.444-1.04h18.106a1.093 1.093 0 001.093-1.094v-7.735a1.094 1.094 0 00-1.1-1.083zm-22.487 2.477h-8.672v-7.203a.373.373 0 01.374-.374h7.924a.374.374 0 01.374.374v7.203z" fill="#FFB800"/><path d="M65.673 37.809H53.981a.59.59 0 00-.59.59v1.295a.59.59 0 00.59.591h11.692a.59.59 0 00.59-.59v-1.296a.59.59 0 00-.59-.59z" fill="#FFB800"/><path d="M35.628 20.84l-6.14-2.246-.76-.278-13.416-4.94a3.141 3.141 0 01-1.203 3.743l12.4 5.22 4.287 14.759 1.36-2.535-2.52-10.914.359.153c2.896 1.313 4.438 4.082 5.35 7.042.198.647.345 1.31.438 1.98h7.136c-.005-7.606-2.741-10.312-7.291-11.984zm2.511 9.013a2.723 2.723 0 110-5.446 2.723 2.723 0 010 5.446z" fill="#273444"/><path d="M38.881 27.872a1.05 1.05 0 10-1.485-1.485 1.05 1.05 0 001.485 1.485zM8.22 40.722a1.05 1.05 0 100-2.1 1.05 1.05 0 000 2.1zm19.752-30.568l-9.455-2.073-.236.656L9.61 5.648l-.167-.702-1.63-.256-1.382 2.35.149 3.862 5.055.55a.039.039 0 01.02 0l-1.183-2.127-.438-1.842 7.72 2.74-.237.655L24.084 14l5.548 2.135.247-4.174-1.907-1.807zM2.148 38.804l1.57-.903v-4.415h.922v-4.812h2.23l.117 8.877a2.462 2.462 0 012.533.037l2.806-19.95a3.135 3.135 0 01-2.97-3.992l-2.686-.377.16 12.29H1.226v7.927h.921v5.318z" fill="#273444"/><path d="M13.066 50.934c.47-.743.73-1.6.75-2.479 0 0-1.286 1.05-1.881 1.227 0 0 .49-1.233.343-2.275 0 0-.848 1.324-1.861 1.4 0 0-2.188-2.806-.337-7.52a2.461 2.461 0 01-4.316-1.474C2.98 40.687.05 42.276.05 45.191c0 5.558 8.044 9.43 13.208 8.15a6.44 6.44 0 002.53-4.104s-1.458 1.575-2.722 1.696zm-.359-35.021a1.45 1.45 0 10-.667-2.823 1.45 1.45 0 00.667 2.823z" fill="#273444"/></svg>