<svg width="28" height="28" fill="none" xmlns="http://www.w3.org/2000/svg"><path d="M5.471 9.293a.85.85 0 00-.942 1.414l.942-1.414zm7.42 5.967l-.472.708.472-.708zm2.218 0l-.471-.707.471.707zm8.362-4.553a.85.85 0 10-.942-1.414l.942 1.414zM7 7.85h14v-1.7H7v1.7zM22.15 9v10h1.7V9h-1.7zM21 20.15H7v1.7h14v-1.7zM5.85 19V9h-1.7v10h1.7zM7 20.15A1.15 1.15 0 015.85 19h-1.7A2.85 2.85 0 007 21.85v-1.7zM22.15 19A1.15 1.15 0 0121 20.15v1.7A2.85 2.85 0 0023.85 19h-1.7zM21 7.85c.635 0 1.15.515 1.15 1.15h1.7A2.85 2.85 0 0021 6.15v1.7zM7 6.15A2.85 2.85 0 004.15 9h1.7c0-.635.515-1.15 1.15-1.15v-1.7zm-2.471 4.557l7.89 5.26.943-1.414-7.89-5.26-.944 1.414zm11.052 5.26l7.89-5.26-.942-1.414-7.891 5.26.943 1.415zm-3.162 0a2.85 2.85 0 003.162 0l-.943-1.414a1.15 1.15 0 01-1.276 0l-.943 1.415z" fill="#A8DA3B"/></svg>