<svg width="28" height="28" fill="none" xmlns="http://www.w3.org/2000/svg"><path d="M14 3.15a.85.85 0 000 1.7v-1.7zm2.733 1.387l.322-.787-.322.787zm3.205 2.606l-.704.476.704-.476zm1.205 3.914h.85v-.002l-.85.002zm-2.093 4.99l-.686-.502a.85.85 0 00-.03.043l.716.459zm-2.074 3.238l-.716-.458-.003.004.719.454zM14 24l-.718.455a.85.85 0 001.437 0L14 23.998zm-2.976-4.704l.719-.454-.002-.004-.717.458zM8.95 16.051l.716-.458a.85.85 0 00-.03-.043l-.686.501zm-2.093-4.99h-.85.85zm1.205-3.918l.703.476-.703-.476zm3.205-2.602l.322.787h.001l-.323-.787zm2.734.309A.85.85 0 0014 3.15v1.7zM14 12.56a.85.85 0 000 1.7v-1.7zm0-4.706a.85.85 0 000 1.7v-1.7zm.021 6.414a.85.85 0 00-.042-1.699l.042 1.7zm-2.107-2.008l.733-.431-.733.43zm0-2.386l-.732-.431.732.43zm2.065-.31a.85.85 0 00.042-1.7l-.042 1.7zM14 4.85a6.37 6.37 0 012.411.474l.643-1.574A8.071 8.071 0 0014 3.15v1.7zm2.41.474a6.277 6.277 0 012.824 2.295l1.409-.952a7.977 7.977 0 00-3.588-2.917l-.644 1.574zm2.825 2.295a6.15 6.15 0 011.058 3.44l1.7-.003a7.85 7.85 0 00-1.35-4.39l-1.408.953zm1.058 3.438c0 .83-.13 1.447-.412 2.084-.296.666-.77 1.382-1.517 2.404l1.372 1.004c.75-1.025 1.322-1.87 1.699-2.718.389-.878.558-1.733.558-2.774h-1.7zm-1.959 4.531l-2.074 3.239 1.431.917 2.075-3.239-1.432-.917zm-2.077 3.243l-2.976 4.715 1.438.907 2.975-4.714-1.437-.908zm-1.539 4.714l-2.975-4.704-1.437.909 2.976 4.704 1.436-.909zm-2.977-4.708l-2.075-3.244-1.432.916 2.074 3.244 1.433-.916zM9.637 15.55c-.748-1.025-1.222-1.74-1.518-2.406-.283-.637-.412-1.253-.412-2.083h-1.7c0 1.042.17 1.895.559 2.773.376.848.949 1.692 1.698 2.718l1.373-1.002zm-1.93-4.488a6.15 6.15 0 011.058-3.443l-1.407-.953a7.85 7.85 0 00-1.35 4.394l1.7.002zm1.058-3.443a6.276 6.276 0 012.824-2.29l-.643-1.574a7.977 7.977 0 00-3.588 2.911l1.407.953zm2.825-2.291a6.371 6.371 0 012.411-.478L14 3.15a8.07 8.07 0 00-3.055.605l.646 1.573zM14 14.26c1.144 0 2.202-.61 2.774-1.602l-1.473-.85A1.503 1.503 0 0114 12.56v1.7zm2.774-1.602a3.203 3.203 0 000-3.203l-1.473.85a1.503 1.503 0 010 1.503l1.473.85zm0-3.203A3.203 3.203 0 0014 7.855v1.7c.537 0 1.033.286 1.301.75l1.473-.85zm-2.795 3.114a1.503 1.503 0 01-1.332-.74l-1.465.862a3.203 3.203 0 002.839 1.577l-.042-1.699zm-1.332-.74a1.503 1.503 0 010-1.524l-1.465-.862a3.203 3.203 0 000 3.248l1.465-.862zm0-1.524c.277-.47.787-.754 1.332-.74l.042-1.7a3.203 3.203 0 00-2.84 1.578l1.466.862z" fill="#A8DA3B"/></svg>