<svg width="20" height="20" fill="none" xmlns="http://www.w3.org/2000/svg"><path d="M17.111 13.12c-1.102 0-2.178-.178-3.173-.507a.748.748 0 00-.276-.044.91.91 0 00-.63.258l-1.956 1.955a13.465 13.465 0 01-5.858-5.858L7.173 6.97a.892.892 0 00.223-.907 10.098 10.098 0 01-.507-3.173c0-.49-.4-.89-.889-.89H2.889C2.4 2 2 2.4 2 2.889 2 11.236 8.764 18 17.111 18c.489 0 .889-.4.889-.889V14.01c0-.489-.4-.889-.889-.889zM3.804 3.778h1.334c.062.79.195 1.564.409 2.302L4.48 7.147a13.178 13.178 0 01-.676-3.37zm12.418 12.418a13.716 13.716 0 01-3.378-.667l1.058-1.058c.756.213 1.53.347 2.311.4v1.325h.01z" fill="#ADDE42"/></svg>