<svg width="20" height="20" fill="none" xmlns="http://www.w3.org/2000/svg"><path d="M5.762 13.516a.62.62 0 00.488.234.626.626 0 00.488-1.016l-1.687-2.109h9.898l-1.687 2.11a.626.626 0 00.976.78l2.5-3.124a.623.623 0 000-.782l-2.5-3.125a.626.626 0 00-.976.782l1.687 2.109H5.051l1.687-2.11a.626.626 0 00-.976-.78l-2.5 3.124a.623.623 0 000 .782l2.5 3.125z" fill="#ADDE42"/><path d="M18.75.625H1.25a.627.627 0 00-.625.625v17.5c0 .344.281.625.625.625h17.5a.627.627 0 00.625-.625V1.25a.627.627 0 00-.625-.625zm-.625 17.5H1.875V1.875h16.25v16.25z" fill="#ADDE42"/></svg>