<svg width="106" height="22" fill="none" xmlns="http://www.w3.org/2000/svg"><path d="M20.167 8.892a.88.88 0 00-.825-.642l-5.225-.733-2.292-4.767c-.183-.458-.733-.641-1.192-.458a1.105 1.105 0 00-.458.458L7.883 7.517l-5.225.733c-.366.092-.641.275-.825.642-.091.367 0 .642.184.917l3.758 3.666-.917 5.225a.871.871 0 00.367.917c.275.183.642.183.917.092l4.675-2.475 4.675 2.475c.091.091.275.091.458.091s.367-.091.55-.183a.872.872 0 00.367-.917l-.917-5.225 3.758-3.666c.459-.275.55-.642.459-.917zm20.777 0a.88.88 0 00-.825-.642l-5.225-.733-2.291-4.767c-.184-.458-.734-.641-1.192-.458a1.104 1.104 0 00-.458.458L28.66 7.517l-5.225.733c-.367.092-.642.275-.825.642-.092.367 0 .642.183.917l3.759 3.666-.917 5.225a.871.871 0 00.367.917c.275.183.641.183.916.092l4.675-2.475 4.675 2.475c.092.091.275.091.459.091.183 0 .366-.091.55-.183a.871.871 0 00.366-.917l-.916-5.225 3.758-3.666c.458-.275.55-.642.458-.917zm20.778 0a.88.88 0 00-.825-.642l-5.225-.733-2.291-4.767c-.184-.458-.734-.641-1.192-.458a1.105 1.105 0 00-.458.458l-2.292 4.767-5.225.733c-.367.092-.642.275-.825.642-.092.367 0 .642.183.917l3.759 3.666-.917 5.225a.872.872 0 00.367.917c.275.183.641.183.916.092l4.675-2.475 4.675 2.475c.092.091.275.091.459.091.183 0 .366-.091.55-.183a.872.872 0 00.366-.917l-.916-5.225 3.758-3.666c.458-.275.55-.642.458-.917zm20.778 0a.88.88 0 00-.825-.642l-5.225-.733-2.292-4.767c-.183-.458-.733-.641-1.191-.458a1.105 1.105 0 00-.459.458l-2.291 4.767-5.225.733c-.367.092-.642.275-.825.642-.092.367 0 .642.183.917l3.758 3.666-.916 5.225a.872.872 0 00.366.917c.275.183.642.183.917.092l4.675-2.475 4.675 2.475c.092.091.275.091.458.091.184 0 .367-.091.55-.183a.872.872 0 00.367-.917l-.917-5.225 3.759-3.666c.458-.275.55-.642.458-.917zm20.778 0a.881.881 0 00-.825-.642l-5.225-.733-2.292-4.767c-.183-.458-.733-.641-1.192-.458a1.104 1.104 0 00-.458.458l-2.292 4.767-5.225.733c-.366.092-.641.275-.825.642-.091.367 0 .642.184.917l3.758 3.666-.917 5.225a.871.871 0 00.367.917c.275.183.642.183.917.092l4.675-2.475 4.675 2.475c.091.091.275.091.458.091s.367-.091.55-.183a.872.872 0 00.367-.917l-.917-5.225 3.758-3.666c.459-.275.55-.642.459-.917z" fill="#FC0"/></svg>