<svg width="22" height="22" fill="none" xmlns="http://www.w3.org/2000/svg"><path d="M10.972 12.109c2.8 0 5.046-2.273 5.046-5.046 0-2.772-2.246-5.073-5.046-5.073a5.046 5.046 0 00-5.045 5.046c0 2.772 2.245 5.073 5.045 5.073zm0-8.788a3.715 3.715 0 010 7.43c-2.051 0-3.714-1.636-3.714-3.688 0-2.051 1.663-3.742 3.714-3.742zM2.212 20.01h17.576c.36 0 .666-.305.666-.665 0-3.493-2.856-6.349-6.349-6.349h-6.21c-3.493 0-6.348 2.855-6.348 6.349 0 .36.305.665.665.665zm5.683-5.683h6.21a5 5 0 014.962 4.352H2.933a5 5 0 014.962-4.352z" fill="#A8DA3B"/></svg>