<svg viewBox="0 0 96 96" xmlns="http://www.w3.org/2000/svg"><path fill="#FFF" d="M51 0C26.1 0 6 20.3 6 45.3c0 8.3 2.2 16.3 6.4 23.3L0 96l28.7-11.2c6.8 3.9 14.4 5.9 22.3 5.9 24.9 0 45-20.3 45-45.3S75.8 0 51 0zm0 86.7c-7.1 0-14.1-1.8-20.3-5.4l-1.7-1-21.3 8.4 9.2-20.3-1.1-1.8C12 60.2 10 52.8 10 45.3 9.9 22.6 28.2 4 51 4s41 18.6 41 41.3-18.3 41.4-41 41.4zm15.7-34.9c-2.9-1.4-7.1-4.1-10.3-2.9-2 .8-3 2.6-4.3 4.2-2.4-1.2-5.3-3-6.8-4.8-.5-.6-1.8-2.1-2.6-3.2.4-.4.8-.8 1.2-1.5 1.9-2.9 1.9-4.4.6-7.5-.5-1.2-1-2.5-1.5-3.7-1.5-3.5-2.4-6.9-7.1-7-1.4 0-2.7-.1-4 .4-3.5 1.2-6.3 5.2-7.3 8.7-1.1 4.1-.6 7.9 1.1 11.7 1.8 4.1 6.7 10.5 9.9 13.6 1 .9 2 1.7 3 2.6 1.1 1 2.3 1.7 3.5 2.5 4.7 3.1 13.7 6.5 19.2 5.4 3.5-.7 7.6-3.2 9.3-6.4.9-1.7 1.5-4.7 1.3-6.7-.3-3.3-2.7-4.1-5.2-5.4zm.4 10.3c-.9 1.8-3.8 3.8-6.5 4.3-4.5.9-12.7-2.4-16.3-4.8-1.1-.8-2-1.3-3.1-2.2-1.1-.9-1.9-1.6-2.8-2.5-2.8-2.7-7.5-8.9-9-12.3-1.2-2.8-1.9-5.7-.9-9 .7-2.4 2.7-5.3 4.7-5.9.7-.3 1.8-.2 2.7-.2 2.2 0 2.3 1.8 3.5 4.5.5 1.3 1 2.5 1.5 3.8.8 1.8.9 2-.3 3.7-2.2 3.3-4.7 1.8 1.7 9.4 2.1 2.6 6.3 5.1 9.6 6.5 1.8.8 2.4-.5 3.2-1.5 3.5-4.2 1.6-4.6 9.9-.5 1.8.9 2.9 1.1 3.1 2.3 0 1.2-.5 3.5-1 4.4z"/></svg>