<svg width="173" height="161" fill="none" xmlns="http://www.w3.org/2000/svg"><path d="M126.711 86.769H78.714a6.222 6.222 0 110-12.445h47.997a6.222 6.222 0 010 12.445zM78.714 76.513a4.034 4.034 0 100 8.067h47.997a4.032 4.032 0 004.034-4.034 4.032 4.032 0 00-4.034-4.033H78.714z" fill="#fff"/><path d="M125.993 82.72a2.174 2.174 0 100-4.347 2.174 2.174 0 000 4.348zm-5.821 0a2.174 2.174 0 100-4.348 2.174 2.174 0 000 4.349zm-5.824 0a2.174 2.174 0 100-4.348 2.174 2.174 0 000 4.349zm-5.822 0a2.174 2.174 0 100-4.347 2.174 2.174 0 000 4.348zm-5.821 0a2.174 2.174 0 100-4.347 2.174 2.174 0 000 4.348zm-5.824 0a2.174 2.174 0 100-4.347 2.174 2.174 0 000 4.348zm-5.821 0a2.174 2.174 0 100-4.347 2.174 2.174 0 000 4.348zm-5.824 0a2.174 2.174 0 100-4.347 2.174 2.174 0 000 4.348zm-5.821 0a2.174 2.174 0 100-4.347 2.174 2.174 0 000 4.348z" fill="#fff"/><path d="M129.902 56.651h-23.95v-7.887a2.037 2.037 0 00-2.035-2.035H87.212a2.325 2.325 0 00-2.034 1.221l-6.673 12.5v8.719a2.034 2.034 0 002.034 2.034h23.399a2.032 2.032 0 001.918-1.383h24.055a1.452 1.452 0 001.453-1.453V58.09a1.454 1.454 0 00-1.462-1.439zm-29.876 3.29h-11.52v-9.57a.493.493 0 01.496-.497H99.53a.496.496 0 01.497.497v9.57z" fill="#FFB800"/><path d="M127.251 50.231h-15.533a.785.785 0 00-.785.785v1.72c0 .434.351.785.785.785h15.533a.785.785 0 00.785-.784v-1.72a.785.785 0 00-.785-.786z" fill="#FFB800"/><path d="M87.334 27.688l-8.158-2.985-1.008-.37-17.824-6.561a4.173 4.173 0 01-1.599 4.972l16.473 6.934 5.696 19.609 1.808-3.368-3.348-14.5.477.204c3.847 1.743 5.896 5.423 7.108 9.355.263.86.457 1.74.581 2.63h9.48c-.005-10.105-3.64-13.7-9.686-15.92zm3.337 11.973a3.618 3.618 0 110-7.236 3.618 3.618 0 010 7.236z" fill="#fff"/><path d="M91.657 37.03a1.395 1.395 0 10-1.973-1.973 1.395 1.395 0 001.973 1.973zM50.922 54.102a1.395 1.395 0 100-2.79 1.395 1.395 0 000 2.79zm26.24-40.611l-12.56-2.755-.315.872-11.52-4.104-.22-.933-2.166-.34-1.837 3.122.198 5.132 6.716.73a.05.05 0 01.026 0l-1.572-2.825-.581-2.447 10.256 3.638-.314.872 8.725 4.147 7.37 2.837.329-5.545-2.535-2.4zM42.854 51.554l2.087-1.2v-5.865h1.223v-6.394h2.965l.154 11.793a3.269 3.269 0 013.365.05l3.729-26.505a4.165 4.165 0 01-3.947-5.304l-3.569-.5.212 16.327H41.63v10.532h1.224v7.066z" fill="#fff"/><path d="M57.359 67.669a6.446 6.446 0 00.997-3.293s-1.709 1.395-2.5 1.63c0 0 .651-1.639.457-3.022 0 0-1.128 1.758-2.473 1.86 0 0-2.907-3.729-.448-9.992a3.27 3.27 0 01-5.734-1.958c-3.7 1.162-7.591 3.272-7.591 7.146 0 7.385 10.686 12.529 17.548 10.829a8.556 8.556 0 003.36-5.452s-1.936 2.092-3.616 2.252zm-.477-46.527a1.927 1.927 0 10-.885-3.75 1.927 1.927 0 00.885 3.75zM.307 160.114v-3.052h.562c.194-.176.375-.424.546-.745.173-.324.32-.756.439-1.296.122-.542.203-1.231.243-2.066l.187-3.682h5.182v7.789h1.006v3.035H7.466V158H1.312v2.114H.308zm1.824-3.052h4.33v-6.852H3.238l-.137 2.745a15.952 15.952 0 01-.179 1.73 8.9 8.9 0 01-.328 1.368 4.715 4.715 0 01-.464 1.009zm7.938.938v-8.727h5.267v.937h-4.21v2.949h3.937v.938h-3.938v2.965h4.279V158h-5.335zm7.171-8.727h1.262l2.966 7.244h.102l2.966-7.244h1.261V158h-.988v-6.631h-.086L21.996 158h-.954l-2.728-6.631h-.085V158h-.989v-8.727zm18.04 4.363c0 .921-.166 1.716-.499 2.387-.332.67-.788 1.187-1.368 1.551-.58.364-1.241.545-1.985.545-.745 0-1.407-.181-1.986-.545-.58-.364-1.036-.881-1.368-1.551-.333-.671-.499-1.466-.499-2.387 0-.92.166-1.716.499-2.386.332-.67.788-1.188 1.368-1.551.58-.364 1.241-.546 1.986-.546.744 0 1.406.182 1.985.546.58.363 1.036.881 1.368 1.551.333.67.499 1.466.499 2.386zm-1.023 0c0-.755-.126-1.393-.38-1.913-.25-.52-.589-.913-1.018-1.18a2.642 2.642 0 00-1.431-.401c-.529 0-1.008.134-1.437.401-.426.267-.765.66-1.018 1.18-.25.52-.375 1.158-.375 1.913 0 .756.125 1.394.375 1.914.253.52.592.913 1.018 1.18.43.267.908.401 1.437.401a2.64 2.64 0 001.431-.401c.43-.267.769-.66 1.019-1.18.253-.52.38-1.158.38-1.914zm2.8 4.364v-8.727h1.057v3.886h4.653v-3.886h1.057V158h-1.057v-3.903h-4.653V158h-1.057zm8.405-7.79v-.937h6.546v.937h-2.745V158h-1.056v-7.79h-2.745zm7.515 7.79H51.87l3.205-8.727h1.09L59.37 158h-1.108l-2.608-7.347h-.068L52.977 158zm.41-3.409h4.465v.937h-4.466v-.937zm12.507-5.318V158h-1.057v-8.727h1.056zM59.996 158l2.83-4.551-2.592-4.176h1.279l2.267 3.869h3.187l2.267-3.869h1.279l-2.608 4.193 2.83 4.534h-1.21l-2.37-3.869h-3.58L61.19 158h-1.193zm12.123 0v-8.727h1.057v3.886h4.653v-3.886h1.057V158H77.83v-3.903h-4.654V158H72.12zm9.241 0h-1.108l3.205-8.727h1.09L87.753 158h-1.108l-2.608-7.347h-.068L81.36 158zm.41-3.409h4.465v.937H81.77v-.937zM95.042 158h-1.056v-7.79h-1.858c-.472 0-.851.073-1.138.218a1.333 1.333 0 00-.627.605 2.03 2.03 0 00-.196.916c0 .349.064.65.192.903.13.25.338.443.622.58.287.136.664.204 1.13.204h2.352v.955h-2.387c-.676 0-1.231-.112-1.666-.337a2.224 2.224 0 01-.967-.937c-.21-.398-.315-.854-.315-1.368 0-.514.105-.973.315-1.377.21-.403.534-.72.971-.95.438-.233.998-.349 1.68-.349h2.948V158zm-4.108-3.92h1.194L90.015 158h-1.227l2.147-3.92zm14.733 3.92l-3-4.006h-1.074V158h-1.057v-8.727h1.057v3.784h.46l3.495-3.784h1.261l-3.528 3.835 3.647 4.892h-1.261zm9.581-4.364c0 .921-.167 1.716-.499 2.387-.332.67-.788 1.187-1.368 1.551-.579.364-1.241.545-1.986.545-.744 0-1.406-.181-1.985-.545-.58-.364-1.036-.881-1.368-1.551-.333-.671-.499-1.466-.499-2.387 0-.92.166-1.716.499-2.386.332-.67.788-1.188 1.368-1.551.579-.364 1.241-.546 1.985-.546.745 0 1.407.182 1.986.546.58.363 1.036.881 1.368 1.551.332.67.499 1.466.499 2.386zm-1.023 0c0-.755-.127-1.393-.379-1.913-.25-.52-.59-.913-1.019-1.18a2.64 2.64 0 00-1.432-.401c-.528 0-1.007.134-1.436.401-.426.267-.765.66-1.018 1.18-.25.52-.375 1.158-.375 1.913 0 .756.125 1.394.375 1.914.253.52.592.913 1.018 1.18.429.267.908.401 1.436.401a2.64 2.64 0 001.432-.401c.429-.267.769-.66 1.019-1.18.252-.52.379-1.158.379-1.914zm2.8-4.363h1.261l2.966 7.244h.102l2.966-7.244h1.261V158h-.988v-6.631h-.085L121.781 158h-.954l-2.728-6.631h-.085V158h-.988v-8.727zm17.204 0V158h-1.057v-7.79h-4.398V158h-1.057v-8.727h6.512zm2.489 8.727h-1.107l3.204-8.727h1.091l3.205 8.727h-1.108l-2.608-7.347h-.069L136.719 158zm.41-3.409h4.465v.937h-4.465v-.937zM144.47 158v-8.727h1.057v3.886h4.653v-3.886h1.057V158h-1.057v-3.903h-4.653V158h-1.057zm8.883-8.727h1.039v6.869h.086l4.772-6.869h1.023V158h-1.057v-6.852h-.085L154.376 158h-1.022v-8.727zM168.321 158h-1.057v-7.79h-1.858c-.472 0-.851.073-1.138.218a1.329 1.329 0 00-.626.605 2.017 2.017 0 00-.196.916c0 .349.064.65.191.903.131.25.338.443.623.58.287.136.663.204 1.129.204h2.352v.955h-2.386c-.676 0-1.232-.112-1.666-.337a2.222 2.222 0 01-.968-.937c-.21-.398-.315-.854-.315-1.368 0-.514.105-.973.315-1.377.21-.403.534-.72.972-.95.437-.233.997-.349 1.679-.349h2.949V158zm-4.108-3.92h1.193l-2.114 3.92h-1.227l2.148-3.92zM.422 139.151v-5.618h.901c.303-.205.58-.49.831-.857.252-.371.467-.89.646-1.56.179-.673.307-1.561.383-2.665l.41-5.542h8.955v10.624h1.406v5.612H10.91V136H3.464v3.151H.422zm4.532-5.618h4.551v-8.054H6.43l-.204 2.972a17.838 17.838 0 01-.269 2.199 11.31 11.31 0 01-.44 1.662 7.39 7.39 0 01-.563 1.221zM15.404 136v-13.091h9.129v2.57h-5.964v2.684h5.497v2.576H18.57v2.691h5.964V136h-9.128zm11.11-13.091h3.919l3.323 8.105h.154l3.324-8.105h3.918V136h-3.081v-8.041h-.109l-3.145 7.958H32.85l-3.145-8.003h-.109V136h-3.08v-13.091zm28.967 6.546c0 1.44-.277 2.661-.83 3.662-.555 1.002-1.305 1.762-2.25 2.282-.942.52-2 .78-3.171.78-1.176 0-2.235-.262-3.177-.786-.942-.524-1.69-1.285-2.243-2.282-.55-1.002-.825-2.22-.825-3.656 0-1.441.275-2.662.825-3.663.553-1.002 1.301-1.762 2.243-2.282s2-.78 3.177-.78c1.172 0 2.229.26 3.17.78.946.52 1.696 1.28 2.25 2.282.554 1.001.831 2.222.831 3.663zm-3.234 0c0-.853-.121-1.573-.364-2.161-.239-.588-.584-1.033-1.036-1.336-.447-.302-.986-.454-1.617-.454-.627 0-1.165.152-1.617.454-.452.303-.8.748-1.042 1.336-.239.588-.358 1.308-.358 2.161 0 .852.12 1.572.358 2.16.243.588.59 1.033 1.042 1.336.452.303.99.454 1.617.454.63 0 1.17-.151 1.617-.454.452-.303.797-.748 1.036-1.336.242-.588.364-1.308.364-2.16zM57.329 136v-13.091h3.164v5.254h5.158v-5.254h3.158V136H65.65v-5.261h-5.158V136h-3.164zm13.036-10.521v-2.57H81.43v2.57h-3.97V136h-3.119v-10.521h-3.976zM84.172 136h-3.4l4.416-13.091h4.213L93.818 136h-3.4l-3.076-9.793h-.102L84.172 136zm-.454-5.152h7.108v2.403h-7.108v-2.403zm22.222-7.939V136h-3.055v-13.091h3.055zM94.76 136l4.066-6.929-3.95-6.162h3.899l2.787 5.254h5.784l2.685-5.254h3.88l-3.81 6.124 3.963 6.967h-3.803l-2.512-4.922h-6.616L98.538 136H94.76z" fill="#fff"/><path d="M119.45 136v-13.091h5.407c.981 0 1.826.192 2.538.575.716.38 1.268.91 1.656 1.592.387.678.581 1.466.581 2.365 0 .903-.198 1.694-.594 2.371a3.99 3.99 0 01-1.681 1.567c-.729.37-1.594.556-2.595.556h-3.337v-2.493h2.748c.478 0 .876-.083 1.196-.25.324-.166.569-.398.735-.696a2.16 2.16 0 00.249-1.055c0-.405-.083-.754-.249-1.048a1.67 1.67 0 00-.735-.691c-.324-.162-.723-.242-1.196-.242h-1.559V136h-3.164zm11.742 0v-13.091h5.408c.98 0 1.826.177 2.537.531a3.817 3.817 0 011.656 1.508c.388.652.581 1.426.581 2.32 0 .908-.198 1.679-.594 2.314-.396.631-.959 1.113-1.687 1.445-.729.328-1.592.492-2.589.492h-3.42v-2.493h2.832c.477 0 .875-.062 1.195-.185.324-.128.569-.32.735-.575.166-.26.249-.593.249-.998 0-.404-.083-.739-.249-1.003a1.496 1.496 0 00-.735-.601c-.324-.136-.722-.204-1.195-.204h-1.56V136h-3.164zm7.37-5.983l3.26 5.983h-3.452l-3.196-5.983h3.388zm16.904-.562c0 1.44-.277 2.661-.831 3.662-.554 1.002-1.304 1.762-2.25 2.282-.942.52-1.999.78-3.171.78-1.176 0-2.235-.262-3.177-.786-.941-.524-1.689-1.285-2.243-2.282-.55-1.002-.825-2.22-.825-3.656 0-1.441.275-2.662.825-3.663.554-1.002 1.302-1.762 2.243-2.282.942-.52 2.001-.78 3.177-.78 1.172 0 2.229.26 3.171.78.946.52 1.696 1.28 2.25 2.282.554 1.001.831 2.222.831 3.663zm-3.235 0c0-.853-.121-1.573-.364-2.161-.239-.588-.584-1.033-1.036-1.336-.447-.302-.986-.454-1.617-.454-.626 0-1.165.152-1.617.454-.452.303-.799.748-1.042 1.336-.238.588-.358 1.308-.358 2.161 0 .852.12 1.572.358 2.16.243.588.59 1.033 1.042 1.336.452.303.991.454 1.617.454.631 0 1.17-.151 1.617-.454.452-.303.797-.748 1.036-1.336.243-.588.364-1.308.364-2.16zm5.082 6.545v-13.091h8.936v2.57h-5.772v2.684h5.203v2.576h-5.203V136h-3.164zm13.693-13.091V136h-3.164v-13.091h3.164z" fill="#FFB800"/></svg>